# xmcd
#
# Track frame offsets:
#	150
#	11920
#	25256
#	37621
#	49713
#	63907
#	75614
#	89552
#	101671
#	115016
#	126237
#	140158
#	149159
#	164853
#	176114
#	188048
#	200922
#	214715
#	230051
#	243532
#
# Disc length: 3391 seconds
#
# Revision: 0
# Processed by: cddbd v1.5.2PL0 Copyright (c) Steve Scherf et al.
# Submitted via: EasyCDDAExtractor 12.1.0.1
#
DISCID=310d3d14
DTITLE=Vera Lynn - 100 Hits Legends - CD 5
DYEAR=2010
DGENRE=Country
TTITLE0=Auf Wiederseh'n Swweetheart
TTITLE1=If You Love Me (Really Love Me)
TTITLE2=The Homing Waltz
TTITLE3=My Son, My Son
TTITLE4=Forget-Me-Not
TTITLE5=The Windsor Waltz
TTITLE6=Who Are We
TTITLE7=A House With Love In It
TTITLE8=The Faithful Hussar (Don't Cry Me Love)
TTITLE9=When You Hear Big Ben
TTITLE10=Travellin' Home
TTITLE11=Addio Amore
TTITLE12=If You Go
TTITLE13=A House Is A Home
TTITLE14=Be Anything (But Be Mine)
TTITLE15=Our Love Story
TTITLE16=I Am Loved
TTITLE17=By The Fireside
TTITLE18=Trying
TTITLE19=From The Time You Say Goodbye
EXTD=
EXTT0=
EXTT1=
EXTT2=
EXTT3=
EXTT4=
EXTT5=
EXTT6=
EXTT7=
EXTT8=
EXTT9=
EXTT10=
EXTT11=
EXTT12=
EXTT13=
EXTT14=
EXTT15=
EXTT16=
EXTT17=
EXTT18=
EXTT19=
PLAYORDER=
